<mxfile host="app.diagrams.net" modified="2021-01-04T09:04:08.675Z" agent="5.0 (Windows NT 10.0; Win64; x64) AppleWebKit/537.36 (KHTML, like Gecko) Chrome/85.0.4183.83 Safari/537.36" etag="Z77ArROKfdgiQb2MVp6D" version="14.1.8" type="github">
  <diagram id="GuRzzckfyUOejNLo7lIA" name="第 1 页">
    <mxGraphModel dx="1422" dy="762" grid="1" gridSize="10" guides="1" tooltips="1" connect="1" arrows="1" fold="1" page="1" pageScale="1" pageWidth="827" pageHeight="1169" math="0" shadow="0">
      <root>
        <mxCell id="0" />
        <mxCell id="1" parent="0" />
        <mxCell id="YqwiJ9IUMlOhpW5BJJl_-5" style="edgeStyle=orthogonalEdgeStyle;rounded=0;orthogonalLoop=1;jettySize=auto;html=1;entryX=0.5;entryY=0;entryDx=0;entryDy=0;" parent="1" source="YqwiJ9IUMlOhpW5BJJl_-1" target="YqwiJ9IUMlOhpW5BJJl_-3" edge="1">
          <mxGeometry relative="1" as="geometry" />
        </mxCell>
        <mxCell id="YqwiJ9IUMlOhpW5BJJl_-1" value="performDraw" style="rounded=0;whiteSpace=wrap;html=1;" parent="1" vertex="1">
          <mxGeometry x="40" y="110" width="120" height="60" as="geometry" />
        </mxCell>
        <mxCell id="YqwiJ9IUMlOhpW5BJJl_-2" value="ViewRootImpl" style="text;html=1;align=center;verticalAlign=middle;resizable=0;points=[];autosize=1;" parent="1" vertex="1">
          <mxGeometry x="55" y="70" width="90" height="20" as="geometry" />
        </mxCell>
        <mxCell id="fWsL25FqUKIRKbE9jePs-3" style="edgeStyle=orthogonalEdgeStyle;rounded=0;orthogonalLoop=1;jettySize=auto;html=1;entryX=0.5;entryY=0;entryDx=0;entryDy=0;entryPerimeter=0;" edge="1" parent="1" source="YqwiJ9IUMlOhpW5BJJl_-3" target="fWsL25FqUKIRKbE9jePs-2">
          <mxGeometry relative="1" as="geometry">
            <mxPoint x="100" y="320" as="targetPoint" />
          </mxGeometry>
        </mxCell>
        <mxCell id="YqwiJ9IUMlOhpW5BJJl_-3" value="draw" style="rounded=0;whiteSpace=wrap;html=1;" parent="1" vertex="1">
          <mxGeometry x="40" y="230" width="120" height="60" as="geometry" />
        </mxCell>
        <mxCell id="YqwiJ9IUMlOhpW5BJJl_-8" style="edgeStyle=orthogonalEdgeStyle;rounded=0;orthogonalLoop=1;jettySize=auto;html=1;entryX=0;entryY=0.5;entryDx=0;entryDy=0;exitX=0.5;exitY=1;exitDx=0;exitDy=0;" parent="1" source="YqwiJ9IUMlOhpW5BJJl_-4" target="YqwiJ9IUMlOhpW5BJJl_-7" edge="1">
          <mxGeometry relative="1" as="geometry" />
        </mxCell>
        <mxCell id="fWsL25FqUKIRKbE9jePs-19" value="Canvas canvas" style="edgeLabel;html=1;align=center;verticalAlign=middle;resizable=0;points=[];" vertex="1" connectable="0" parent="YqwiJ9IUMlOhpW5BJJl_-8">
          <mxGeometry x="-0.2737" y="-2" relative="1" as="geometry">
            <mxPoint as="offset" />
          </mxGeometry>
        </mxCell>
        <mxCell id="YqwiJ9IUMlOhpW5BJJl_-4" value="drawSoftware" style="rounded=0;whiteSpace=wrap;html=1;" parent="1" vertex="1">
          <mxGeometry x="40" y="470" width="120" height="60" as="geometry" />
        </mxCell>
        <mxCell id="YqwiJ9IUMlOhpW5BJJl_-17" style="edgeStyle=orthogonalEdgeStyle;rounded=0;orthogonalLoop=1;jettySize=auto;html=1;entryX=0.5;entryY=0;entryDx=0;entryDy=0;" parent="1" source="YqwiJ9IUMlOhpW5BJJl_-7" target="YqwiJ9IUMlOhpW5BJJl_-9" edge="1">
          <mxGeometry relative="1" as="geometry" />
        </mxCell>
        <mxCell id="YqwiJ9IUMlOhpW5BJJl_-7" value="draw" style="rounded=0;whiteSpace=wrap;html=1;" parent="1" vertex="1">
          <mxGeometry x="230" y="560" width="120" height="60" as="geometry" />
        </mxCell>
        <mxCell id="YqwiJ9IUMlOhpW5BJJl_-18" value="" style="edgeStyle=orthogonalEdgeStyle;rounded=0;orthogonalLoop=1;jettySize=auto;html=1;" parent="1" source="YqwiJ9IUMlOhpW5BJJl_-9" target="YqwiJ9IUMlOhpW5BJJl_-10" edge="1">
          <mxGeometry relative="1" as="geometry" />
        </mxCell>
        <mxCell id="YqwiJ9IUMlOhpW5BJJl_-9" value="drawBackground" style="rounded=0;whiteSpace=wrap;html=1;" parent="1" vertex="1">
          <mxGeometry x="235" y="680" width="120" height="60" as="geometry" />
        </mxCell>
        <mxCell id="YqwiJ9IUMlOhpW5BJJl_-16" style="edgeStyle=orthogonalEdgeStyle;rounded=0;orthogonalLoop=1;jettySize=auto;html=1;entryX=0.5;entryY=0;entryDx=0;entryDy=0;" parent="1" source="YqwiJ9IUMlOhpW5BJJl_-10" target="YqwiJ9IUMlOhpW5BJJl_-11" edge="1">
          <mxGeometry relative="1" as="geometry" />
        </mxCell>
        <mxCell id="YqwiJ9IUMlOhpW5BJJl_-10" value="onDraw" style="rounded=0;whiteSpace=wrap;html=1;" parent="1" vertex="1">
          <mxGeometry x="235" y="765" width="120" height="60" as="geometry" />
        </mxCell>
        <mxCell id="YqwiJ9IUMlOhpW5BJJl_-15" style="edgeStyle=orthogonalEdgeStyle;rounded=0;orthogonalLoop=1;jettySize=auto;html=1;entryX=0.5;entryY=0;entryDx=0;entryDy=0;" parent="1" source="YqwiJ9IUMlOhpW5BJJl_-11" target="YqwiJ9IUMlOhpW5BJJl_-12" edge="1">
          <mxGeometry relative="1" as="geometry" />
        </mxCell>
        <mxCell id="YqwiJ9IUMlOhpW5BJJl_-19" style="edgeStyle=orthogonalEdgeStyle;rounded=0;orthogonalLoop=1;jettySize=auto;html=1;entryX=1;entryY=0.5;entryDx=0;entryDy=0;" parent="1" source="YqwiJ9IUMlOhpW5BJJl_-11" target="YqwiJ9IUMlOhpW5BJJl_-7" edge="1">
          <mxGeometry relative="1" as="geometry">
            <mxPoint x="565" y="620" as="targetPoint" />
            <Array as="points">
              <mxPoint x="575" y="890" />
              <mxPoint x="575" y="590" />
            </Array>
          </mxGeometry>
        </mxCell>
        <mxCell id="YqwiJ9IUMlOhpW5BJJl_-20" value="ViewGroup" style="edgeLabel;html=1;align=center;verticalAlign=middle;resizable=0;points=[];" parent="YqwiJ9IUMlOhpW5BJJl_-19" vertex="1" connectable="0">
          <mxGeometry x="-0.0282" y="-4" relative="1" as="geometry">
            <mxPoint x="-4" as="offset" />
          </mxGeometry>
        </mxCell>
        <mxCell id="YqwiJ9IUMlOhpW5BJJl_-11" value="dispatchDraw" style="rounded=0;whiteSpace=wrap;html=1;" parent="1" vertex="1">
          <mxGeometry x="235" y="860" width="120" height="60" as="geometry" />
        </mxCell>
        <mxCell id="YqwiJ9IUMlOhpW5BJJl_-14" style="edgeStyle=orthogonalEdgeStyle;rounded=0;orthogonalLoop=1;jettySize=auto;html=1;entryX=0.5;entryY=0;entryDx=0;entryDy=0;" parent="1" source="YqwiJ9IUMlOhpW5BJJl_-12" target="YqwiJ9IUMlOhpW5BJJl_-13" edge="1">
          <mxGeometry relative="1" as="geometry" />
        </mxCell>
        <mxCell id="YqwiJ9IUMlOhpW5BJJl_-12" value="onDrawForeground" style="rounded=0;whiteSpace=wrap;html=1;" parent="1" vertex="1">
          <mxGeometry x="235" y="950" width="120" height="60" as="geometry" />
        </mxCell>
        <mxCell id="YqwiJ9IUMlOhpW5BJJl_-13" value="drawDefaultFocusHighlight" style="rounded=0;whiteSpace=wrap;html=1;" parent="1" vertex="1">
          <mxGeometry x="200" y="1050" width="190" height="60" as="geometry" />
        </mxCell>
        <mxCell id="YqwiJ9IUMlOhpW5BJJl_-21" value="View" style="text;html=1;align=center;verticalAlign=middle;resizable=0;points=[];autosize=1;" parent="1" vertex="1">
          <mxGeometry x="270" y="530" width="40" height="20" as="geometry" />
        </mxCell>
        <mxCell id="YqwiJ9IUMlOhpW5BJJl_-22" value="绘制流程" style="text;html=1;align=center;verticalAlign=middle;resizable=0;points=[];autosize=1;fontSize=29;" parent="1" vertex="1">
          <mxGeometry x="315" y="20" width="130" height="40" as="geometry" />
        </mxCell>
        <mxCell id="fWsL25FqUKIRKbE9jePs-5" style="edgeStyle=orthogonalEdgeStyle;rounded=0;orthogonalLoop=1;jettySize=auto;html=1;entryX=0.5;entryY=0;entryDx=0;entryDy=0;" edge="1" parent="1" source="fWsL25FqUKIRKbE9jePs-2" target="YqwiJ9IUMlOhpW5BJJl_-4">
          <mxGeometry relative="1" as="geometry" />
        </mxCell>
        <mxCell id="fWsL25FqUKIRKbE9jePs-6" value="false" style="edgeLabel;html=1;align=center;verticalAlign=middle;resizable=0;points=[];" vertex="1" connectable="0" parent="fWsL25FqUKIRKbE9jePs-5">
          <mxGeometry x="-0.2528" y="1" relative="1" as="geometry">
            <mxPoint as="offset" />
          </mxGeometry>
        </mxCell>
        <mxCell id="fWsL25FqUKIRKbE9jePs-8" style="edgeStyle=orthogonalEdgeStyle;rounded=0;orthogonalLoop=1;jettySize=auto;html=1;entryX=0;entryY=0.5;entryDx=0;entryDy=0;" edge="1" parent="1" source="fWsL25FqUKIRKbE9jePs-2" target="fWsL25FqUKIRKbE9jePs-7">
          <mxGeometry relative="1" as="geometry" />
        </mxCell>
        <mxCell id="fWsL25FqUKIRKbE9jePs-2" value="支持硬件加速" style="strokeWidth=2;html=1;shape=mxgraph.flowchart.decision;whiteSpace=wrap;" vertex="1" parent="1">
          <mxGeometry x="50" y="320" width="100" height="100" as="geometry" />
        </mxCell>
        <mxCell id="fWsL25FqUKIRKbE9jePs-10" style="edgeStyle=orthogonalEdgeStyle;rounded=0;orthogonalLoop=1;jettySize=auto;html=1;entryX=0;entryY=0.5;entryDx=0;entryDy=0;" edge="1" parent="1" source="fWsL25FqUKIRKbE9jePs-7" target="fWsL25FqUKIRKbE9jePs-9">
          <mxGeometry relative="1" as="geometry" />
        </mxCell>
        <mxCell id="fWsL25FqUKIRKbE9jePs-7" value="&lt;pre style=&quot;font-family: &amp;#34;consolas&amp;#34; , monospace&quot;&gt;&lt;font style=&quot;font-size: 11px&quot;&gt;ThreadedRender.draw&lt;/font&gt;&lt;/pre&gt;" style="rounded=0;whiteSpace=wrap;html=1;fillColor=#FFFFFF;" vertex="1" parent="1">
          <mxGeometry x="220" y="340" width="150" height="60" as="geometry" />
        </mxCell>
        <mxCell id="fWsL25FqUKIRKbE9jePs-12" style="edgeStyle=orthogonalEdgeStyle;rounded=0;orthogonalLoop=1;jettySize=auto;html=1;entryX=0;entryY=0.5;entryDx=0;entryDy=0;" edge="1" parent="1" source="fWsL25FqUKIRKbE9jePs-9" target="fWsL25FqUKIRKbE9jePs-11">
          <mxGeometry relative="1" as="geometry" />
        </mxCell>
        <mxCell id="fWsL25FqUKIRKbE9jePs-9" value="&lt;pre style=&quot;font-family: &amp;#34;consolas&amp;#34; , monospace&quot;&gt;&lt;font style=&quot;font-size: 11px&quot;&gt;ThreadedRender.&lt;/font&gt;updateRootDisplayList&lt;/pre&gt;" style="rounded=0;whiteSpace=wrap;html=1;fillColor=#FFFFFF;" vertex="1" parent="1">
          <mxGeometry x="445" y="340" width="250" height="60" as="geometry" />
        </mxCell>
        <mxCell id="fWsL25FqUKIRKbE9jePs-15" style="edgeStyle=orthogonalEdgeStyle;rounded=0;orthogonalLoop=1;jettySize=auto;html=1;entryX=0.5;entryY=0;entryDx=0;entryDy=0;" edge="1" parent="1" source="fWsL25FqUKIRKbE9jePs-11" target="fWsL25FqUKIRKbE9jePs-13">
          <mxGeometry relative="1" as="geometry" />
        </mxCell>
        <mxCell id="fWsL25FqUKIRKbE9jePs-11" value="&lt;pre style=&quot;font-family: &amp;#34;consolas&amp;#34; , monospace&quot;&gt;&lt;font style=&quot;font-size: 11px&quot;&gt;ThreadedRender.&lt;/font&gt;updateViewTreeDisplayList&lt;/pre&gt;" style="rounded=0;whiteSpace=wrap;html=1;fillColor=#FFFFFF;" vertex="1" parent="1">
          <mxGeometry x="760" y="340" width="290" height="60" as="geometry" />
        </mxCell>
        <mxCell id="fWsL25FqUKIRKbE9jePs-14" style="edgeStyle=orthogonalEdgeStyle;rounded=0;orthogonalLoop=1;jettySize=auto;html=1;entryX=0.5;entryY=0;entryDx=0;entryDy=0;" edge="1" parent="1" source="fWsL25FqUKIRKbE9jePs-13" target="YqwiJ9IUMlOhpW5BJJl_-7">
          <mxGeometry relative="1" as="geometry" />
        </mxCell>
        <mxCell id="fWsL25FqUKIRKbE9jePs-17" value="&lt;pre style=&quot;font-family: &amp;#34;consolas&amp;#34; , monospace ; font-size: 12pt&quot;&gt;DisplayListCanvas canvas&lt;/pre&gt;" style="edgeLabel;html=1;align=center;verticalAlign=middle;resizable=0;points=[];" vertex="1" connectable="0" parent="fWsL25FqUKIRKbE9jePs-14">
          <mxGeometry x="0.08" y="4" relative="1" as="geometry">
            <mxPoint y="-4" as="offset" />
          </mxGeometry>
        </mxCell>
        <mxCell id="fWsL25FqUKIRKbE9jePs-20" style="edgeStyle=orthogonalEdgeStyle;rounded=0;orthogonalLoop=1;jettySize=auto;html=1;entryX=0;entryY=0.5;entryDx=0;entryDy=0;" edge="1" parent="1" source="fWsL25FqUKIRKbE9jePs-13" target="fWsL25FqUKIRKbE9jePs-23">
          <mxGeometry relative="1" as="geometry">
            <mxPoint x="1180" y="520" as="targetPoint" />
            <Array as="points" />
          </mxGeometry>
        </mxCell>
        <mxCell id="fWsL25FqUKIRKbE9jePs-22" value="当自身不需要更新DisplayList" style="edgeLabel;html=1;align=center;verticalAlign=middle;resizable=0;points=[];" vertex="1" connectable="0" parent="fWsL25FqUKIRKbE9jePs-20">
          <mxGeometry x="-0.8719" relative="1" as="geometry">
            <mxPoint x="81" as="offset" />
          </mxGeometry>
        </mxCell>
        <mxCell id="fWsL25FqUKIRKbE9jePs-13" value="&lt;pre style=&quot;font-family: &amp;#34;consolas&amp;#34; , monospace&quot;&gt;&lt;font style=&quot;font-size: 11px&quot;&gt;View.&lt;/font&gt;updateDisplayListIfDirty&lt;/pre&gt;" style="rounded=0;whiteSpace=wrap;html=1;fillColor=#FFFFFF;" vertex="1" parent="1">
          <mxGeometry x="650" y="490" width="290" height="60" as="geometry" />
        </mxCell>
        <mxCell id="fWsL25FqUKIRKbE9jePs-25" style="edgeStyle=orthogonalEdgeStyle;rounded=0;orthogonalLoop=1;jettySize=auto;html=1;entryX=0.5;entryY=1;entryDx=0;entryDy=0;" edge="1" parent="1" source="fWsL25FqUKIRKbE9jePs-23" target="fWsL25FqUKIRKbE9jePs-24">
          <mxGeometry relative="1" as="geometry" />
        </mxCell>
        <mxCell id="fWsL25FqUKIRKbE9jePs-23" value="&lt;pre style=&quot;font-family: &amp;#34;consolas&amp;#34; , monospace&quot;&gt;&lt;font style=&quot;font-size: 11px&quot;&gt;ViewGroup.&lt;/font&gt;dispatchGetDisplayList&lt;/pre&gt;" style="rounded=0;whiteSpace=wrap;html=1;fillColor=#FFFFFF;" vertex="1" parent="1">
          <mxGeometry x="1190" y="490" width="290" height="60" as="geometry" />
        </mxCell>
        <mxCell id="fWsL25FqUKIRKbE9jePs-26" style="edgeStyle=orthogonalEdgeStyle;rounded=0;orthogonalLoop=1;jettySize=auto;html=1;entryX=1;entryY=0.25;entryDx=0;entryDy=0;" edge="1" parent="1" source="fWsL25FqUKIRKbE9jePs-24" target="fWsL25FqUKIRKbE9jePs-11">
          <mxGeometry relative="1" as="geometry">
            <Array as="points">
              <mxPoint x="1335" y="355" />
            </Array>
          </mxGeometry>
        </mxCell>
        <mxCell id="fWsL25FqUKIRKbE9jePs-24" value="&lt;pre style=&quot;font-family: &amp;#34;consolas&amp;#34; , monospace&quot;&gt;&lt;font style=&quot;font-size: 11px&quot;&gt;ViewGroup.&lt;/font&gt;recreateChildDisplayList&lt;/pre&gt;" style="rounded=0;whiteSpace=wrap;html=1;fillColor=#FFFFFF;" vertex="1" parent="1">
          <mxGeometry x="1190" y="380" width="290" height="60" as="geometry" />
        </mxCell>
      </root>
    </mxGraphModel>
  </diagram>
</mxfile>
